Normalized EMG Linear Envelopes
nRows=109
nColumns=4

endheader
time	 med_gas_r	  soleus_r	 tib_ant_r	
3.86492	  0.008986	  0.012381	  0.002962	
3.93649	  0.009690	  0.012121	  0.003948	
4.00806	  0.009993	  0.011711	  0.004958	
4.07964	  0.009943	  0.011182	  0.005843	
4.15121	  0.009797	  0.010725	  0.006198	
4.22278	  0.009695	  0.010513	  0.005737	
4.29435	  0.009721	  0.010594	  0.004840	
4.36593	  0.009903	  0.010924	  0.004353	
4.4375	  0.010037	  0.011399	  0.004747	
4.50907	  0.009903	  0.011836	  0.005622	
4.58065	  0.009591	  0.012043	  0.006046	
4.65222	  0.009328	  0.011865	  0.005555	
4.72379	  0.009205	  0.011104	  0.004619	
4.79536	  0.009097	  0.009609	  0.003865	
4.86694	  0.008850	  0.007894	  0.003448	
4.93851	  0.008998	  0.008061	  0.003494	
5.01008	  0.011360	  0.014299	  0.004656	
5.08165	  0.018200	  0.031093	  0.007694	
5.15323	  0.029552	  0.057515	  0.012218	
5.2248	  0.041551	  0.083965	  0.016349	
5.29637	  0.049498	  0.100437	  0.018415	
5.36794	  0.051635	  0.105621	  0.018538	
5.43952	  0.048228	  0.102019	  0.018004	
5.51109	  0.041006	  0.091235	  0.018024	
5.58266	  0.035361	  0.081190	  0.019409	
5.65423	  0.038257	  0.086304	  0.022337	
5.72581	  0.053257	  0.113495	  0.026253	
5.79738	  0.079773	  0.154508	  0.030788	
5.86895	  0.115123	  0.194987	  0.036212	
5.94052	  0.155164	  0.226389	  0.042275	
6.0121	  0.193852	  0.246762	  0.047362	
6.08367	  0.225931	  0.257045	  0.049881	
6.15524	  0.252345	  0.261936	  0.050329	
6.22681	  0.280482	  0.268473	  0.050587	
6.29839	  0.316327	  0.279928	  0.051446	
6.36996	  0.358310	  0.293610	  0.052659	
6.44153	  0.403042	  0.305190	  0.054414	
6.5131	  0.449900	  0.314341	  0.057146	
6.58468	  0.493322	  0.325916	  0.060591	
6.65625	  0.525940	  0.346396	  0.063361	
6.72782	  0.551607	  0.378407	  0.063878	
6.7994	  0.578203	  0.415106	  0.062749	
6.87097	  0.604258	  0.442570	  0.062865	
6.94254	  0.623276	  0.451842	  0.065563	
7.01411	  0.631863	  0.446593	  0.068841	
7.08569	  0.630351	  0.438077	  0.070344	
7.15726	  0.621562	  0.432168	  0.069518	
7.22883	  0.611542	  0.425318	  0.067211	
7.3004	  0.607497	  0.416450	  0.065228	
7.37198	  0.610829	  0.411073	  0.064900	
7.44355	  0.616540	  0.410495	  0.065362	
7.51512	  0.620199	  0.411816	  0.064603	
7.58669	  0.620883	  0.417044	  0.061944	
7.65827	  0.617512	  0.427518	  0.058716	
7.72984	  0.605759	  0.434856	  0.056659	
7.80141	  0.584287	  0.429981	  0.056126	
7.87298	  0.559830	  0.417919	  0.056332	
7.94456	  0.539504	  0.415862	  0.056432	
8.01613	  0.526260	  0.434508	  0.055708	
8.0877	  0.522786	  0.464222	  0.053924	
8.15927	  0.528270	  0.482324	  0.051738	
8.23085	  0.533071	  0.476477	  0.050329	
8.30242	  0.529316	  0.458931	  0.050867	
8.37399	  0.521478	  0.449343	  0.053472	
8.44556	  0.514913	  0.451326	  0.056395	
8.51714	  0.506581	  0.457173	  0.057654	
8.58871	  0.492047	  0.460835	  0.056954	
8.66028	  0.468961	  0.455424	  0.054942	
8.73185	  0.438375	  0.433143	  0.051962	
8.80343	  0.408166	  0.398614	  0.048398	
8.875	  0.387363	  0.370286	  0.045092	
8.94657	  0.376288	  0.359576	  0.042789	
9.01815	  0.369051	  0.359591	  0.041656	
9.08972	  0.364020	  0.357406	  0.041283	
9.16129	  0.363528	  0.347276	  0.040927	
9.23286	  0.366419	  0.332815	  0.040234	
9.30444	  0.368741	  0.323007	  0.039803	
9.37601	  0.371033	  0.324725	  0.040514	
9.44758	  0.380533	  0.335903	  0.042617	
9.51915	  0.402800	  0.348675	  0.045944	
9.59073	  0.431294	  0.359001	  0.049890	
9.6623	  0.447915	  0.366387	  0.052577	
9.73387	  0.440312	  0.368760	  0.052040	
9.80544	  0.419411	  0.364796	  0.048747	
9.87702	  0.407649	  0.354910	  0.045283	
9.94859	  0.410491	  0.339626	  0.043684	
10.0202	  0.414082	  0.320990	  0.043870	
10.0917	  0.406740	  0.304145	  0.044162	
10.1633	  0.387988	  0.298230	  0.043008	
10.2349	  0.362896	  0.309620	  0.040371	
10.3065	  0.339142	  0.329221	  0.037653	
10.378	  0.322428	  0.337353	  0.036329	
10.4496	  0.310380	  0.324485	  0.036608	
10.5212	  0.295024	  0.295688	  0.037179	
10.5927	  0.270430	  0.258941	  0.036292	
10.6643	  0.239346	  0.222910	  0.033610	
10.7359	  0.213107	  0.198366	  0.030817	
10.8075	  0.201615	  0.189465	  0.029629	
10.879	  0.203513	  0.188860	  0.029871	
10.9506	  0.208011	  0.186147	  0.030385	
11.0222	  0.204970	  0.176287	  0.030624	
11.0937	  0.191197	  0.159119	  0.030431	
11.1653	  0.168613	  0.137458	  0.029227	
11.2369	  0.140276	  0.117183	  0.026539	
11.3085	  0.110299	  0.103168	  0.023033	
11.38	  0.084324	  0.095028	  0.019980	
11.4516	  0.066405	  0.090340	  0.017774	
11.5232	  0.056873	  0.088293	  0.015678	
11.5948	  0.052518	  0.087946	  0.013099	
